<mxfile host="app.diagrams.net" agent="Mozilla/5.0 (Macintosh; Intel Mac OS X 10_15_7) AppleWebKit/605.1.15 (KHTML, like Gecko) Version/18.2 Safari/605.1.15" version="26.0.4">
  <diagram name="Page-1" id="2YBvvXClWsGukQMizWep">
    <mxGraphModel dx="1007" dy="660" grid="0" gridSize="10" guides="1" tooltips="1" connect="1" arrows="1" fold="1" page="0" pageScale="1" pageWidth="850" pageHeight="1100" math="0" shadow="0">
      <root>
        <mxCell id="0" />
        <mxCell id="1" parent="0" />
        <mxCell id="5fznZeWwoGSfHOwO7fPe-1" value="Email Service&amp;nbsp;" style="rounded=0;whiteSpace=wrap;html=1;" vertex="1" parent="1">
          <mxGeometry x="600" y="90" width="120" height="60" as="geometry" />
        </mxCell>
        <mxCell id="5fznZeWwoGSfHOwO7fPe-2" value="AI Engine" style="rounded=0;whiteSpace=wrap;html=1;" vertex="1" parent="1">
          <mxGeometry x="450" y="90" width="120" height="60" as="geometry" />
        </mxCell>
        <mxCell id="5fznZeWwoGSfHOwO7fPe-3" value="System Interface" style="rounded=0;whiteSpace=wrap;html=1;" vertex="1" parent="1">
          <mxGeometry x="280" y="90" width="120" height="60" as="geometry" />
        </mxCell>
        <mxCell id="5fznZeWwoGSfHOwO7fPe-4" value="User" style="rounded=0;whiteSpace=wrap;html=1;" vertex="1" parent="1">
          <mxGeometry x="120" y="90" width="120" height="60" as="geometry" />
        </mxCell>
        <mxCell id="5fznZeWwoGSfHOwO7fPe-5" value="Admin Interface" style="rounded=0;whiteSpace=wrap;html=1;" vertex="1" parent="1">
          <mxGeometry x="940" y="90" width="120" height="60" as="geometry" />
        </mxCell>
        <mxCell id="5fznZeWwoGSfHOwO7fPe-6" value="Payment Gateway" style="rounded=0;whiteSpace=wrap;html=1;" vertex="1" parent="1">
          <mxGeometry x="770" y="90" width="120" height="60" as="geometry" />
        </mxCell>
        <mxCell id="5fznZeWwoGSfHOwO7fPe-7" value="" style="shape=link;html=1;rounded=0;exitX=0.379;exitY=1.042;exitDx=0;exitDy=0;exitPerimeter=0;" edge="1" parent="1" source="5fznZeWwoGSfHOwO7fPe-5">
          <mxGeometry width="100" relative="1" as="geometry">
            <mxPoint x="950" y="210" as="sourcePoint" />
            <mxPoint x="985" y="560" as="targetPoint" />
          </mxGeometry>
        </mxCell>
        <mxCell id="5fznZeWwoGSfHOwO7fPe-8" value="" style="shape=link;html=1;rounded=0;exitX=0.588;exitY=1.056;exitDx=0;exitDy=0;exitPerimeter=0;" edge="1" parent="1" source="5fznZeWwoGSfHOwO7fPe-6">
          <mxGeometry width="100" relative="1" as="geometry">
            <mxPoint x="770" y="210" as="sourcePoint" />
            <mxPoint x="840" y="550" as="targetPoint" />
          </mxGeometry>
        </mxCell>
        <mxCell id="5fznZeWwoGSfHOwO7fPe-9" value="" style="shape=link;html=1;rounded=0;exitX=0.5;exitY=1;exitDx=0;exitDy=0;" edge="1" parent="1" source="5fznZeWwoGSfHOwO7fPe-1">
          <mxGeometry width="100" relative="1" as="geometry">
            <mxPoint x="620" y="200" as="sourcePoint" />
            <mxPoint x="660" y="560" as="targetPoint" />
          </mxGeometry>
        </mxCell>
        <mxCell id="5fznZeWwoGSfHOwO7fPe-10" value="" style="shape=link;html=1;rounded=0;exitX=0.5;exitY=1;exitDx=0;exitDy=0;" edge="1" parent="1" source="5fznZeWwoGSfHOwO7fPe-2">
          <mxGeometry width="100" relative="1" as="geometry">
            <mxPoint x="460" y="200" as="sourcePoint" />
            <mxPoint x="510" y="520" as="targetPoint" />
          </mxGeometry>
        </mxCell>
        <mxCell id="5fznZeWwoGSfHOwO7fPe-11" value="" style="shape=link;html=1;rounded=0;exitX=0.595;exitY=0.958;exitDx=0;exitDy=0;exitPerimeter=0;" edge="1" parent="1" source="5fznZeWwoGSfHOwO7fPe-3">
          <mxGeometry width="100" relative="1" as="geometry">
            <mxPoint x="290" y="200" as="sourcePoint" />
            <mxPoint x="350" y="560" as="targetPoint" />
          </mxGeometry>
        </mxCell>
        <mxCell id="5fznZeWwoGSfHOwO7fPe-12" value="" style="shape=link;html=1;rounded=0;exitX=0.5;exitY=1;exitDx=0;exitDy=0;" edge="1" parent="1" source="5fznZeWwoGSfHOwO7fPe-4">
          <mxGeometry width="100" relative="1" as="geometry">
            <mxPoint x="170" y="190" as="sourcePoint" />
            <mxPoint x="180" y="560" as="targetPoint" />
          </mxGeometry>
        </mxCell>
        <mxCell id="5fznZeWwoGSfHOwO7fPe-13" value="user registration&amp;nbsp;" style="text;html=1;align=center;verticalAlign=middle;resizable=0;points=[];autosize=1;strokeColor=none;fillColor=none;" vertex="1" parent="1">
          <mxGeometry x="185" y="160" width="110" height="30" as="geometry" />
        </mxCell>
        <mxCell id="5fznZeWwoGSfHOwO7fPe-15" value="&lt;br&gt;&lt;div&gt;Submit Photo &amp;nbsp;Analysis&amp;nbsp;&lt;/div&gt;" style="text;html=1;align=center;verticalAlign=middle;resizable=0;points=[];autosize=1;strokeColor=none;fillColor=none;" vertex="1" parent="1">
          <mxGeometry x="180" y="215" width="150" height="40" as="geometry" />
        </mxCell>
        <mxCell id="5fznZeWwoGSfHOwO7fPe-16" value="Submits photo for processing&lt;div&gt;&lt;br&gt;&lt;/div&gt;" style="text;html=1;align=center;verticalAlign=middle;resizable=0;points=[];autosize=1;strokeColor=none;fillColor=none;" vertex="1" parent="1">
          <mxGeometry x="335" y="255" width="180" height="40" as="geometry" />
        </mxCell>
        <mxCell id="5fznZeWwoGSfHOwO7fPe-17" value="Generates PDF Report" style="text;html=1;align=center;verticalAlign=middle;resizable=0;points=[];autosize=1;strokeColor=none;fillColor=none;" vertex="1" parent="1">
          <mxGeometry x="510" y="280" width="150" height="30" as="geometry" />
        </mxCell>
        <mxCell id="5fznZeWwoGSfHOwO7fPe-18" value="Sends Report&amp;nbsp;" style="text;html=1;align=center;verticalAlign=middle;resizable=0;points=[];autosize=1;strokeColor=none;fillColor=none;" vertex="1" parent="1">
          <mxGeometry x="540" y="300" width="100" height="30" as="geometry" />
        </mxCell>
        <mxCell id="5fznZeWwoGSfHOwO7fPe-19" value="Payments details are &amp;nbsp;provided" style="text;html=1;align=center;verticalAlign=middle;resizable=0;points=[];autosize=1;strokeColor=none;fillColor=none;" vertex="1" parent="1">
          <mxGeometry x="660" y="330" width="190" height="30" as="geometry" />
        </mxCell>
        <mxCell id="5fznZeWwoGSfHOwO7fPe-20" value="Veriification email&amp;nbsp;" style="text;html=1;align=center;verticalAlign=middle;resizable=0;points=[];autosize=1;strokeColor=none;fillColor=none;" vertex="1" parent="1">
          <mxGeometry x="540" y="185" width="120" height="30" as="geometry" />
        </mxCell>
        <mxCell id="5fznZeWwoGSfHOwO7fPe-21" value="&lt;br&gt;&lt;div&gt;Submit Photo &amp;nbsp;Analysis&amp;nbsp;&lt;/div&gt;" style="text;html=1;align=center;verticalAlign=middle;resizable=0;points=[];autosize=1;strokeColor=none;fillColor=none;" vertex="1" parent="1">
          <mxGeometry x="180" y="360" width="150" height="40" as="geometry" />
        </mxCell>
        <mxCell id="5fznZeWwoGSfHOwO7fPe-22" value="Submits photo for processing&lt;div&gt;&lt;br&gt;&lt;/div&gt;" style="text;html=1;align=center;verticalAlign=middle;resizable=0;points=[];autosize=1;strokeColor=none;fillColor=none;" vertex="1" parent="1">
          <mxGeometry x="345" y="400" width="180" height="40" as="geometry" />
        </mxCell>
        <mxCell id="5fznZeWwoGSfHOwO7fPe-23" value="Generates PDF Report" style="text;html=1;align=center;verticalAlign=middle;resizable=0;points=[];autosize=1;strokeColor=none;fillColor=none;" vertex="1" parent="1">
          <mxGeometry x="515" y="440" width="150" height="30" as="geometry" />
        </mxCell>
        <mxCell id="5fznZeWwoGSfHOwO7fPe-24" value="Sends Report&amp;nbsp;" style="text;html=1;align=center;verticalAlign=middle;resizable=0;points=[];autosize=1;strokeColor=none;fillColor=none;" vertex="1" parent="1">
          <mxGeometry x="550" y="480" width="100" height="30" as="geometry" />
        </mxCell>
        <mxCell id="5fznZeWwoGSfHOwO7fPe-26" value="" style="endArrow=classic;html=1;rounded=0;" edge="1" parent="1">
          <mxGeometry width="50" height="50" relative="1" as="geometry">
            <mxPoint x="670" y="210" as="sourcePoint" />
            <mxPoint x="180" y="210" as="targetPoint" />
          </mxGeometry>
        </mxCell>
        <mxCell id="5fznZeWwoGSfHOwO7fPe-27" value="" style="endArrow=classic;html=1;rounded=0;exitX=0.108;exitY=-0.055;exitDx=0;exitDy=0;exitPerimeter=0;" edge="1" parent="1" source="5fznZeWwoGSfHOwO7fPe-19">
          <mxGeometry width="50" height="50" relative="1" as="geometry">
            <mxPoint x="550" y="270" as="sourcePoint" />
            <mxPoint x="180" y="330" as="targetPoint" />
          </mxGeometry>
        </mxCell>
        <mxCell id="5fznZeWwoGSfHOwO7fPe-28" value="" style="endArrow=classic;html=1;rounded=0;" edge="1" parent="1">
          <mxGeometry width="50" height="50" relative="1" as="geometry">
            <mxPoint x="660" y="520" as="sourcePoint" />
            <mxPoint x="180" y="520" as="targetPoint" />
          </mxGeometry>
        </mxCell>
        <mxCell id="5fznZeWwoGSfHOwO7fPe-29" value="manages users" style="text;html=1;align=center;verticalAlign=middle;resizable=0;points=[];autosize=1;strokeColor=none;fillColor=none;" vertex="1" parent="1">
          <mxGeometry x="850" y="168" width="110" height="30" as="geometry" />
        </mxCell>
      </root>
    </mxGraphModel>
  </diagram>
</mxfile>
